<svg xmlns="http://www.w3.org/2000/svg" width="1200" height="675" viewBox="0 0 1200 675" fill="none">
  <defs><linearGradient id="bg" x1="80" y1="12" x2="1090" y2="661" gradientUnits="userSpaceOnUse"><stop stop-color="#172138"/><stop offset="1" stop-color="#102A2D"/></linearGradient><linearGradient id="accent" x1="185" y1="180" x2="1000" y2="590" gradientUnits="userSpaceOnUse"><stop stop-color="#22D3EE"/><stop offset="1" stop-color="#818CF8"/></linearGradient></defs>
  <rect width="1200" height="675" fill="url(#bg)"/><rect x="58" y="38" width="1084" height="599" rx="24" fill="#F8FAFC"/>
  <path d="M82 38h1036a24 24 0 0 1 24 24v44H58V62a24 24 0 0 1 24-24Z" fill="#151923"/><circle cx="86" cy="72" r="6" fill="#FB7185"/><circle cx="108" cy="72" r="6" fill="#FBBF24"/><circle cx="130" cy="72" r="6" fill="#34D399"/><rect x="435" y="58" width="330" height="28" rx="14" fill="#272B37"/><text x="548" y="77" fill="#A1A1AA" font-family="Arial,sans-serif" font-size="12">sharebox.app / my-files</text>
  <rect x="58" y="106" width="1084" height="70" fill="#fff"/><rect x="88" y="124" width="36" height="36" rx="11" fill="url(#accent)"/><path d="M101 142h10m-5-5v10m-7-10 7-7 7 7m-14 10 7 7 7-7" stroke="#fff" stroke-width="2" stroke-linecap="round" stroke-linejoin="round"/><text x="138" y="149" fill="#18181B" font-family="Arial,sans-serif" font-size="18" font-weight="700">ShareBox</text><rect x="821" y="124" width="177" height="34" rx="17" fill="#F4F4F5"/><text x="843" y="146" fill="#71717A" font-family="Arial,sans-serif" font-size="11">Search your files</text><circle cx="1031" cy="141" r="17" fill="#E0E7FF"/><text x="1024" y="145" fill="#4F46E5" font-family="Arial,sans-serif" font-size="10" font-weight="700">MW</text>
  <rect x="58" y="176" width="207" height="461" fill="#F1F5F9"/><rect x="79" y="198" width="164" height="38" rx="10" fill="#E0E7FF"/><path d="M96 210h12v13H96z" stroke="#4F46E5" stroke-width="1.5"/><text x="118" y="222" fill="#4338CA" font-family="Arial,sans-serif" font-size="12" font-weight="700">My files</text><text x="97" y="269" fill="#64748B" font-family="Arial,sans-serif" font-size="12">Shared with me</text><text x="97" y="307" fill="#64748B" font-family="Arial,sans-serif" font-size="12">Recent</text><text x="97" y="345" fill="#64748B" font-family="Arial,sans-serif" font-size="12">Favorites</text><text x="97" y="383" fill="#64748B" font-family="Arial,sans-serif" font-size="12">Trash</text><rect x="80" y="548" width="163" height="8" rx="4" fill="#CBD5E1"/><rect x="80" y="548" width="91" height="8" rx="4" fill="#6366F1"/><text x="80" y="540" fill="#64748B" font-family="Arial,sans-serif" font-size="10">Storage used · 5.4 GB of 15 GB</text>
  <text x="298" y="222" fill="#18181B" font-family="Arial,sans-serif" font-size="23" font-weight="700">My files</text><text x="298" y="247" fill="#71717A" font-family="Arial,sans-serif" font-size="12">Keep everything organized and easy to share.</text><rect x="932" y="198" width="164" height="39" rx="19.5" fill="url(#accent)"/><path d="M954 217h12m-6-6v12" stroke="#fff" stroke-width="1.8" stroke-linecap="round"/><text x="976" y="221" fill="#fff" font-family="Arial,sans-serif" font-size="11" font-weight="700">Upload files</text>
  <text x="298" y="291" fill="#71717A" font-family="Arial,sans-serif" font-size="10" font-weight="700" letter-spacing="1">NAME</text><text x="714" y="291" fill="#71717A" font-family="Arial,sans-serif" font-size="10" font-weight="700" letter-spacing="1">OWNER</text><text x="866" y="291" fill="#71717A" font-family="Arial,sans-serif" font-size="10" font-weight="700" letter-spacing="1">LAST MODIFIED</text><path d="M295 303h801" stroke="#E4E4E7"/>
  <g font-family="Arial,sans-serif"><rect x="298" y="321" width="38" height="38" rx="10" fill="#FEF3C7"/><path d="M308 331h10l4 4h8v16h-22v-20Z" fill="#FBBF24"/><text x="351" y="339" fill="#27272A" font-size="12" font-weight="700">Brand assets</text><text x="351" y="354" fill="#A1A1AA" font-size="10">Folder · 18 items</text><circle cx="729" cy="340" r="12" fill="#DDD6FE"/><text x="724" y="344" fill="#6D28D9" font-size="8" font-weight="700">MW</text><text x="866" y="344" fill="#71717A" font-size="10">Today, 10:42 AM</text><circle cx="1074" cy="340" r="2" fill="#71717A"/><circle cx="1082" cy="340" r="2" fill="#71717A"/><circle cx="1090" cy="340" r="2" fill="#71717A"/>
  <rect x="298" y="374" width="38" height="38" rx="10" fill="#DBEAFE"/><path d="M310 383h11l6 6v14h-17v-20Zm11 0v7h6" stroke="#3B82F6" stroke-width="1.5" stroke-linejoin="round"/><text x="351" y="392" fill="#27272A" font-size="12" font-weight="700">Product-roadmap.pdf</text><text x="351" y="407" fill="#A1A1AA" font-size="10">PDF document · 2.4 MB</text><circle cx="729" cy="393" r="12" fill="#FCE7F3"/><text x="724" y="397" fill="#BE185D" font-size="8" font-weight="700">AC</text><text x="866" y="397" fill="#71717A" font-size="10">Yesterday</text><circle cx="1074" cy="393" r="2" fill="#71717A"/><circle cx="1082" cy="393" r="2" fill="#71717A"/><circle cx="1090" cy="393" r="2" fill="#71717A"/>
  <rect x="298" y="427" width="38" height="38" rx="10" fill="#DCFCE7"/><path d="M308 438h18v14h-18zM308 439l9 7 9-7" stroke="#16A34A" stroke-width="1.5" stroke-linejoin="round"/><text x="351" y="445" fill="#27272A" font-size="12" font-weight="700">Campaign-preview.png</text><text x="351" y="460" fill="#A1A1AA" font-size="10">Image · 4.1 MB</text><circle cx="729" cy="446" r="12" fill="#E0F2FE"/><text x="724" y="450" fill="#0369A1" font-size="8" font-weight="700">JL</text><text x="866" y="450" fill="#71717A" font-size="10">May 18, 2026</text><circle cx="1074" cy="446" r="2" fill="#71717A"/><circle cx="1082" cy="446" r="2" fill="#71717A"/><circle cx="1090" cy="446" r="2" fill="#71717A"/></g>
  <rect x="298" y="496" width="798" height="95" rx="14" fill="#F5F3FF"/><circle cx="347" cy="543" r="24" fill="#E9D5FF"/><path d="M347 532v16m-6-6 6 6 6-6" stroke="#7C3AED" stroke-width="2" stroke-linecap="round" stroke-linejoin="round"/><text x="386" y="535" fill="#27272A" font-family="Arial,sans-serif" font-size="13" font-weight="700">Share files with anyone</text><text x="386" y="555" fill="#71717A" font-family="Arial,sans-serif" font-size="11">Create a secure link and control who can view or download.</text><rect x="913" y="525" width="157" height="36" rx="18" fill="#fff" stroke="#DDD6FE"/><text x="936" y="548" fill="#6D28D9" font-family="Arial,sans-serif" font-size="11" font-weight="700">Create share link</text>
</svg>
